# xmcd
#
# Track frame offsets:
#	150
#	14822
#	31849
#	49714
#	67099
#	83206
#	98169
#	115070
#	131336
#	145835
#	163142
#	177541
#	194215
#	208842
#	222577
#
# Disc length: 3187 seconds
#
# Revision: 1
# Processed by: cddbd v1.5.2PL0 Copyright (c) Steve Scherf et al.
# Submitted via: audiograbber 1.83.01
#
DISCID=ea0c710f
DTITLE=Arve Hålands Cajun Gumbo - "Bon Appetit"
DYEAR=2006
DGENRE=Country
TTITLE0=102 Ruth Drive
TTITLE1=Chère Adleen
TTITLE2=Choo-choo Train
TTITLE3=Sans dormir
TTITLE4=Pourquoi tu ma fait du mal
TTITLE5=Valse des amies Cadjins
TTITLE6=I've Never Been a Lucky Guy
TTITLE7=Les bon temps
TTITLE8=The Evening Train
TTITLE9=Je suis un homme
TTITLE10=Comme une serpent
TTITLE11=Your Love Will Be In Vain
TTITLE12=Cajun Spice
TTITLE13=Dans mon rêve
TTITLE14=Merci mes amis cajuns
EXTD=
EXTT0=
EXTT1=
EXTT2=
EXTT3=
EXTT4=
EXTT5=
EXTT6=
EXTT7=
EXTT8=
EXTT9=
EXTT10=
EXTT11=
EXTT12=
EXTT13=
EXTT14=
PLAYORDER=
